<svg xmlns="http://www.w3.org/2000/svg" xmlns:xlink="http://www.w3.org/1999/xlink" width="500" zoomAndPan="magnify" viewBox="0 0 375 374.999991" height="500" preserveAspectRatio="xMidYMid meet" version="1.0"><defs><g/><clipPath id="15ad94acb6"><path d="M 165 77.628906 L 210 77.628906 L 210 199 L 165 199 Z M 165 77.628906 " clip-rule="nonzero"/></clipPath></defs><g clip-path="url(#15ad94acb6)"><path fill="#a9cfc3" d="M 209.492188 138.140625 C 209.492188 171.558594 187.515625 198.652344 187.515625 198.652344 C 187.515625 198.652344 165.539062 171.558594 165.539062 138.140625 C 165.539062 104.71875 187.515625 77.625 187.515625 77.625 C 187.515625 77.625 209.492188 104.71875 209.492188 138.140625 " fill-opacity="1" fill-rule="nonzero"/></g><path fill="#a9cfc3" d="M 254.269531 97.703125 C 254.269531 97.703125 233.335938 104.304688 215.480469 120.945312 C 216.539062 126.414062 217.183594 132.171875 217.183594 138.140625 C 217.183594 161.371094 207.582031 181.503906 200.597656 193.085938 C 211.941406 187.371094 228.222656 176.933594 239.226562 160.296875 C 257.65625 132.421875 254.269531 97.703125 254.269531 97.703125 Z M 159.554688 120.945312 C 141.695312 104.304688 120.761719 97.703125 120.761719 97.703125 C 120.761719 97.703125 117.375 132.421875 135.808594 160.296875 C 146.808594 176.933594 163.09375 187.371094 174.4375 193.085938 C 167.449219 181.503906 157.847656 161.371094 157.847656 138.140625 C 157.847656 132.171875 158.492188 126.414062 159.554688 120.945312 " fill-opacity="1" fill-rule="nonzero"/><path fill="#a9cfc3" d="M 129.394531 164.539062 C 127.230469 161.265625 125.355469 157.914062 123.710938 154.539062 C 97.097656 150.25 73.21875 158.859375 73.21875 158.859375 C 73.21875 158.859375 91.578125 188.523438 123.140625 199.507812 C 142.578125 206.277344 162.472656 204.382812 174.902344 201.933594 L 170.976562 199.953125 C 158.550781 193.695312 141.25 182.472656 129.394531 164.539062 Z M 251.324219 154.539062 C 249.679688 157.914062 247.804688 161.269531 245.636719 164.539062 C 233.785156 182.472656 216.480469 193.695312 204.058594 199.953125 L 200.128906 201.933594 C 212.5625 204.382812 232.457031 206.277344 251.890625 199.507812 C 283.453125 188.523438 301.8125 158.859375 301.8125 158.859375 C 301.8125 158.859375 277.933594 150.25 251.324219 154.539062 " fill-opacity="1" fill-rule="nonzero"/><path fill="#a9cfc3" d="M 207.574219 217.453125 C 200.027344 213.332031 193.320312 208.257812 187.515625 202.476562 C 191.492188 205.652344 195.78125 208.546875 200.398438 211.070312 C 256.015625 241.453125 326.164062 166.570312 374.839844 216.605469 C 326.617188 179.921875 260.511719 246.378906 207.574219 217.453125 " fill-opacity="1" fill-rule="nonzero"/><path fill="#a9cfc3" d="M 167.457031 217.453125 C 175.007812 213.332031 181.710938 208.257812 187.515625 202.476562 C 183.539062 205.652344 179.253906 208.546875 174.632812 211.070312 C 119.019531 241.453125 48.867188 166.570312 0.191406 216.605469 C 48.410156 179.921875 114.519531 246.378906 167.457031 217.453125 " fill-opacity="1" fill-rule="nonzero"/><g fill="#000000" fill-opacity="1"><g transform="translate(59.939779, 265.031277)"><g><path d="M 17.082031 -15.582031 C 19.582031 -16.3125 22.277344 -18.582031 22.277344 -21.585938 C 22.277344 -25.546875 17.582031 -26.933594 11.351562 -26.933594 L 0.578125 -26.933594 L 0.578125 -26.738281 C 2.15625 -26.546875 3.5 -26.125 3.5 -24.738281 L 3.5 -2.960938 C 3.5 -1.578125 2.15625 -0.769531 0.578125 -0.191406 L 0.578125 0 L 12.890625 0 C 20.121094 0 24.816406 -3.847656 24.816406 -8.886719 C 24.816406 -12.890625 21.890625 -15.042969 17.082031 -15.582031 Z M 11.582031 -26.316406 C 16.582031 -26.316406 18.46875 -23.546875 18.46875 -19.890625 C 18.46875 -16.351562 16.699219 -15.699219 14.621094 -15.699219 L 7.425781 -15.699219 L 7.425781 -26.316406 Z M 13.773438 -0.691406 C 11.925781 -0.691406 9.617188 -0.960938 7.425781 -1.539062 L 7.425781 -15.042969 L 12.773438 -15.042969 C 20.007812 -15.042969 20.929688 -11.15625 20.929688 -7.542969 C 20.929688 -2.039062 18.777344 -0.691406 13.773438 -0.691406 Z M 13.773438 -0.691406 "/></g></g></g><g fill="#000000" fill-opacity="1"><g transform="translate(87.794276, 265.031277)"><g><path d="M 23.699219 -7.503906 C 20.699219 -3.039062 18.929688 -0.617188 14.660156 -0.617188 L 7.425781 -0.617188 L 7.425781 -13.160156 L 12.8125 -13.160156 C 16.890625 -13.160156 18.042969 -12.121094 18.96875 -9.273438 L 18.96875 -17.660156 C 18.042969 -14.8125 16.890625 -13.773438 12.8125 -13.773438 L 7.425781 -13.773438 L 7.425781 -26.316406 L 13.890625 -26.316406 C 18.160156 -26.316406 19.738281 -24.394531 22.316406 -20.738281 L 22.46875 -20.816406 L 21.199219 -26.933594 L 0.578125 -26.933594 L 0.578125 -26.738281 C 2.15625 -26.546875 3.5 -26.125 3.5 -24.738281 L 3.5 -2.960938 C 3.5 -1.578125 2.15625 -0.769531 0.578125 -0.191406 L 0.578125 0 L 20.429688 0 L 21.738281 0.847656 L 21.96875 0 L 23.855469 -7.425781 Z M 23.699219 -7.503906 "/></g></g></g><g fill="#000000" fill-opacity="1"><g transform="translate(113.725136, 265.031277)"><g><path d="M 26.355469 -4.847656 L 18.238281 -25.355469 C 17.429688 -27.355469 17.390625 -27.664062 17.390625 -27.972656 L 13.8125 -25.625 L 13.195312 -25.199219 L 13.273438 -24.355469 L 4.734375 -4.65625 C 3.308594 -1.347656 2.386719 -0.617188 0.769531 -0.152344 L 0.769531 0 L 7.847656 0 L 7.847656 -0.152344 C 5.695312 -0.617188 4.15625 -1.308594 5.578125 -4.617188 L 6.425781 -6.539062 L 21.46875 -6.539062 L 22.238281 -4.617188 C 23.585938 -1.230469 22.046875 -0.382812 19.351562 -0.152344 L 19.351562 0 L 30.164062 0 L 30.164062 -0.152344 C 28.433594 -0.382812 27.742188 -1.308594 26.355469 -4.847656 Z M 6.695312 -7.234375 L 14.234375 -24.625 L 21.199219 -7.234375 Z M 6.695312 -7.234375 "/></g></g></g><g fill="#000000" fill-opacity="1"><g transform="translate(146.15789, 265.031277)"><g><path d="M 13.929688 0.539062 C 19.429688 0.539062 24.007812 -2.960938 24.007812 -10.273438 L 24.007812 -20.851562 C 24.007812 -26.085938 25.355469 -26.507812 26.933594 -26.703125 L 26.933594 -26.894531 L 19.890625 -26.894531 L 19.890625 -26.703125 C 21.855469 -26.507812 23.199219 -25.316406 23.199219 -20.082031 L 23.199219 -9.617188 C 23.199219 -3.039062 18.3125 -0.652344 15.121094 -0.652344 C 12.15625 -0.652344 7.425781 -2.691406 7.425781 -9.542969 L 7.425781 -24.738281 C 7.425781 -26.125 8.773438 -26.546875 10.351562 -26.738281 L 10.351562 -26.933594 L 0.578125 -26.933594 L 0.578125 -26.738281 C 2.15625 -26.546875 3.5 -26.125 3.5 -24.738281 L 3.5 -10.195312 C 3.5 -1.347656 10.003906 0.539062 13.929688 0.539062 Z M 13.929688 0.539062 "/></g></g></g><g fill="#000000" fill-opacity="1"><g transform="translate(175.166567, 265.031277)"><g><path d="M 26.164062 -26.933594 L 1.65625 -26.933594 L 0.382812 -19.007812 L 0.539062 -19.007812 C 2.769531 -24.238281 4.386719 -26.355469 10.234375 -26.355469 L 11.121094 -26.355469 L 11.121094 -2.578125 C 11.121094 -0.808594 9.773438 -0.382812 7.425781 -0.191406 L 7.425781 0 L 18.738281 0 L 18.738281 -0.191406 C 16.390625 -0.382812 15.042969 -0.808594 15.042969 -2.578125 L 15.042969 -26.355469 L 17.851562 -26.355469 C 21.816406 -26.355469 24.046875 -24.238281 23.546875 -19.007812 L 23.699219 -19.007812 Z M 26.164062 -26.933594 "/></g></g></g><g fill="#000000" fill-opacity="1"><g transform="translate(203.213425, 265.031277)"><g><path d="M 20.546875 -26.933594 L 20.546875 -26.777344 C 23.046875 -26.394531 24.46875 -25.777344 22.738281 -23.046875 L 15.929688 -12.351562 L 9.15625 -23.429688 L 7.078125 -26.933594 L 0.578125 -26.933594 L 0.578125 -26.777344 C 1.847656 -26.546875 3.269531 -25.664062 4.65625 -23.429688 L 12.464844 -10.851562 L 12.464844 -2.191406 C 12.464844 -0.808594 11.121094 -0.382812 9.15625 -0.191406 L 9.15625 0 L 19.699219 0 L 19.699219 -0.191406 C 17.738281 -0.382812 16.390625 -0.808594 16.390625 -2.191406 L 16.390625 -11.621094 L 23.699219 -23.007812 C 25.433594 -25.703125 26.933594 -26.316406 29.046875 -26.777344 L 29.046875 -26.933594 Z M 20.546875 -26.933594 "/></g></g></g><g fill="#000000" fill-opacity="1"><g transform="translate(234.338102, 265.031277)"><g><path d="M 24.238281 -26.777344 L 24.238281 -26.933594 L 3.425781 -26.933594 L 2.230469 -19.199219 L 2.386719 -19.199219 C 4.386719 -25.199219 6.65625 -26.316406 12.582031 -26.316406 L 18.277344 -26.316406 L 5.578125 -5.847656 C 3.269531 -2.15625 1.960938 -0.5 0.769531 0 L 23.046875 0 L 24.238281 -7.65625 L 24.085938 -7.65625 C 22.085938 -1.730469 19.816406 -0.617188 13.503906 -0.617188 L 6.886719 -0.617188 L 20.199219 -22.160156 C 22.316406 -25.546875 23.085938 -26.546875 24.238281 -26.777344 Z M 24.238281 -26.777344 "/></g></g></g><g fill="#000000" fill-opacity="1"><g transform="translate(260.846062, 265.031277)"><g><path d="M 23.699219 -7.503906 C 20.699219 -3.039062 18.929688 -0.617188 14.660156 -0.617188 L 7.425781 -0.617188 L 7.425781 -13.160156 L 12.8125 -13.160156 C 16.890625 -13.160156 18.042969 -12.121094 18.96875 -9.273438 L 18.96875 -17.660156 C 18.042969 -14.8125 16.890625 -13.773438 12.8125 -13.773438 L 7.425781 -13.773438 L 7.425781 -26.316406 L 13.890625 -26.316406 C 18.160156 -26.316406 19.738281 -24.394531 22.316406 -20.738281 L 22.46875 -20.816406 L 21.199219 -26.933594 L 0.578125 -26.933594 L 0.578125 -26.738281 C 2.15625 -26.546875 3.5 -26.125 3.5 -24.738281 L 3.5 -2.960938 C 3.5 -1.578125 2.15625 -0.769531 0.578125 -0.191406 L 0.578125 0 L 20.429688 0 L 21.738281 0.847656 L 21.96875 0 L 23.855469 -7.425781 Z M 23.699219 -7.503906 "/></g></g></g><g fill="#000000" fill-opacity="1"><g transform="translate(286.77693, 265.031277)"><g><path d="M 21.046875 -26.933594 L 21.046875 -26.738281 C 22.625 -26.546875 23.96875 -25.355469 23.96875 -20.121094 L 23.96875 -6.15625 L 8.273438 -24.855469 C 7.464844 -25.777344 7.117188 -26.472656 6.847656 -26.933594 L 0.382812 -26.933594 C 1.617188 -26.316406 2.578125 -25.433594 3.886719 -23.894531 L 3.886719 -6.039062 C 3.886719 -0.808594 2.539062 -0.382812 0.960938 -0.191406 L 0.960938 0 L 7.578125 0 L 7.578125 -0.191406 C 6.003906 -0.382812 4.65625 -1.578125 4.65625 -6.808594 L 4.65625 -22.96875 L 24.894531 1.078125 L 24.96875 1 C 24.894531 -0.382812 24.777344 -2.386719 24.777344 -6.386719 L 24.777344 -20.890625 C 24.777344 -26.125 26.125 -26.546875 27.703125 -26.738281 L 27.703125 -26.933594 Z M 21.046875 -26.933594 "/></g></g></g><g fill="#4a2d1d" fill-opacity="1"><g transform="translate(148.656557, 293.626505)"><g><path d="M 10.371094 -1.671875 L 10.265625 -1.746094 C 9.617188 -0.949219 8.308594 -0.480469 7.179688 -0.480469 C 4.515625 -0.480469 2.363281 -3.011719 2.363281 -6.140625 C 2.363281 -8.957031 4.019531 -10.429688 6.035156 -10.429688 C 8.339844 -10.429688 9.453125 -8.519531 8.640625 -6.53125 L 8.683594 -6.519531 L 10.597656 -9.167969 C 9.90625 -10.011719 8.683594 -10.746094 6.773438 -10.746094 C 3.671875 -10.746094 0.675781 -8.746094 0.675781 -5.269531 C 0.675781 -2.03125 3.265625 0.210938 6.441406 0.210938 C 8.398438 0.210938 9.722656 -0.648438 10.371094 -1.671875 Z M 10.371094 -1.671875 "/></g></g></g><g fill="#4a2d1d" fill-opacity="1"><g transform="translate(165.87433, 293.626505)"><g><path d="M 7.554688 -1.503906 C 7.089844 -0.859375 5.855469 -0.558594 5.058594 -0.558594 C 3.25 -0.558594 2.078125 -2.121094 2.0625 -4.183594 L 6.367188 -4.183594 C 8.25 -4.183594 7.902344 -7.390625 4.773438 -7.390625 C 2.589844 -7.390625 0.601562 -5.902344 0.601562 -3.476562 C 0.601562 -1.203125 2.316406 0.105469 4.410156 0.105469 C 5.960938 0.105469 7.179688 -0.601562 7.632812 -1.445312 Z M 4.230469 -7.121094 C 6.1875 -7.121094 6.683594 -4.484375 5.765625 -4.46875 L 2.0625 -4.425781 C 2.136719 -6.125 3.011719 -7.121094 4.230469 -7.121094 Z M 4.230469 -7.121094 "/></g></g></g><g fill="#4a2d1d" fill-opacity="1"><g transform="translate(180.127876, 293.626505)"><g><path d="M 6.441406 0 L 8.503906 0 C 8.054688 -0.300781 7.917969 -0.585938 7.917969 -1.398438 L 7.917969 -4.652344 C 7.917969 -6.925781 6.742188 -7.390625 5.765625 -7.390625 C 4.425781 -7.390625 3.265625 -6.519531 2.453125 -5.976562 L 2.453125 -6.261719 L 2.527344 -7.375 L 0.152344 -7.148438 L 0.152344 -7.089844 C 0.464844 -7.058594 0.859375 -6.953125 1.070312 -6.820312 L 1.070312 -1.039062 L 0.976562 0 L 3.039062 0 C 2.589844 -0.300781 2.453125 -0.585938 2.453125 -1.398438 L 2.453125 -5.644531 C 3.222656 -6.15625 3.945312 -6.742188 4.90625 -6.742188 C 5.691406 -6.742188 6.53125 -6.335938 6.53125 -4.621094 L 6.53125 -1.039062 Z M 6.441406 0 "/></g></g></g><g fill="#4a2d1d" fill-opacity="1"><g transform="translate(195.254138, 293.626505)"><g><path d="M 2.257812 0.242188 L 2.574219 0.242188 L 4.394531 -0.269531 L 4.394531 -0.332031 L 2.574219 -0.269531 L 2.574219 -6.9375 L 4.320312 -6.9375 L 4.394531 -7.300781 L 2.574219 -7.300781 L 2.574219 -9.242188 L 2.695312 -9.859375 L -0.0742188 -8.578125 L -0.0742188 -8.488281 C 0.902344 -8.777344 1.1875 -8.835938 1.1875 -8.203125 L 1.1875 -1.039062 L 1.144531 -0.136719 Z M 2.257812 0.242188 "/></g></g></g><g fill="#4a2d1d" fill-opacity="1"><g transform="translate(206.197389, 293.626505)"><g><path d="M 7.554688 -1.503906 C 7.089844 -0.859375 5.855469 -0.558594 5.058594 -0.558594 C 3.25 -0.558594 2.078125 -2.121094 2.0625 -4.183594 L 6.367188 -4.183594 C 8.25 -4.183594 7.902344 -7.390625 4.773438 -7.390625 C 2.589844 -7.390625 0.601562 -5.902344 0.601562 -3.476562 C 0.601562 -1.203125 2.316406 0.105469 4.410156 0.105469 C 5.960938 0.105469 7.179688 -0.601562 7.632812 -1.445312 Z M 4.230469 -7.121094 C 6.1875 -7.121094 6.683594 -4.484375 5.765625 -4.46875 L 2.0625 -4.425781 C 2.136719 -6.125 3.011719 -7.121094 4.230469 -7.121094 Z M 4.230469 -7.121094 "/></g></g></g><g fill="#4a2d1d" fill-opacity="1"><g transform="translate(220.450936, 293.626505)"><g><path d="M 4.847656 -7.375 C 3.839844 -7.375 2.996094 -6.742188 2.648438 -5.78125 L 2.453125 -5.78125 L 2.453125 -6.261719 L 2.527344 -7.375 L 0.152344 -7.148438 L 0.152344 -7.089844 C 0.464844 -7.058594 0.859375 -6.953125 1.070312 -6.820312 L 1.070312 -1.039062 L 0.992188 0 L 3.039062 0 C 2.589844 -0.300781 2.453125 -0.585938 2.453125 -1.398438 L 2.453125 -4.515625 C 2.605469 -5.570312 3.085938 -6.53125 3.851562 -6.53125 C 4.335938 -6.53125 4.695312 -6.097656 4.289062 -5.085938 L 4.351562 -5.085938 L 5.644531 -7.195312 C 5.359375 -7.332031 5.117188 -7.375 4.847656 -7.375 Z M 4.847656 -7.375 "/></g></g></g></svg>