<svg xmlns="http://www.w3.org/2000/svg" xmlns:xlink="http://www.w3.org/1999/xlink" width="508" zoomAndPan="magnify" viewBox="0 0 381 226.499993" height="302" preserveAspectRatio="xMidYMid meet" version="1.0"><defs><g/><clipPath id="fe99d55f99"><path d="M 190 120 L 377.585938 120 L 377.585938 148 L 190 148 Z M 190 120 " clip-rule="nonzero"/></clipPath><clipPath id="6cce2d7bb9"><path d="M 3.414062 120 L 191 120 L 191 148 L 3.414062 148 Z M 3.414062 120 " clip-rule="nonzero"/></clipPath></defs><path fill="#a9cfc3" d="M 212.441406 60.378906 C 212.441406 93.722656 190.515625 120.757812 190.515625 120.757812 C 190.515625 120.757812 168.589844 93.722656 168.589844 60.378906 C 168.589844 27.03125 190.515625 -0.00390625 190.515625 -0.00390625 C 190.515625 -0.00390625 212.441406 27.03125 212.441406 60.378906 " fill-opacity="1" fill-rule="nonzero"/><path fill="#a9cfc3" d="M 257.125 20.027344 C 257.125 20.027344 236.234375 26.617188 218.417969 43.222656 C 219.476562 48.679688 220.117188 54.421875 220.117188 60.378906 C 220.117188 83.558594 210.539062 103.644531 203.566406 115.203125 C 214.886719 109.5 231.132812 99.085938 242.113281 82.484375 C 260.503906 54.671875 257.125 20.027344 257.125 20.027344 Z M 162.617188 43.222656 C 144.796875 26.617188 123.90625 20.027344 123.90625 20.027344 C 123.90625 20.027344 120.527344 54.671875 138.921875 82.484375 C 149.898438 99.085938 166.144531 109.5 177.464844 115.203125 C 170.492188 103.644531 160.914062 83.558594 160.914062 60.378906 C 160.914062 54.421875 161.558594 48.679688 162.617188 43.222656 " fill-opacity="1" fill-rule="nonzero"/><path fill="#a9cfc3" d="M 132.519531 86.71875 C 130.359375 83.453125 128.492188 80.109375 126.851562 76.738281 C 100.296875 72.460938 76.46875 81.050781 76.46875 81.050781 C 76.46875 81.050781 94.789062 110.648438 126.285156 121.609375 C 145.675781 128.363281 165.527344 126.476562 177.929688 124.027344 L 174.015625 122.054688 C 161.617188 115.8125 144.351562 104.609375 132.519531 86.71875 Z M 254.183594 76.738281 C 252.539062 80.109375 250.671875 83.453125 248.507812 86.71875 C 236.679688 104.609375 219.417969 115.8125 207.019531 122.054688 L 203.101562 124.027344 C 215.503906 126.476562 235.359375 128.363281 254.75 121.609375 C 286.242188 110.648438 304.5625 81.050781 304.5625 81.050781 C 304.5625 81.050781 280.734375 72.460938 254.183594 76.738281 " fill-opacity="1" fill-rule="nonzero"/><g clip-path="url(#fe99d55f99)"><path fill="#a9cfc3" d="M 210.527344 139.515625 C 203 135.402344 196.308594 130.339844 190.515625 124.570312 C 194.484375 127.742188 198.765625 130.628906 203.371094 133.144531 C 258.863281 163.464844 328.859375 88.746094 377.429688 138.671875 C 329.3125 102.070312 263.351562 168.378906 210.527344 139.515625 " fill-opacity="1" fill-rule="nonzero"/></g><g clip-path="url(#6cce2d7bb9)"><path fill="#a9cfc3" d="M 170.503906 139.515625 C 178.035156 135.402344 184.722656 130.339844 190.515625 124.570312 C 186.546875 127.742188 182.269531 130.628906 177.664062 133.144531 C 122.171875 163.464844 52.171875 88.746094 3.601562 138.671875 C 51.71875 102.070312 117.683594 168.378906 170.503906 139.515625 " fill-opacity="1" fill-rule="nonzero"/></g><g fill="#000000" fill-opacity="1"><g transform="translate(63.220749, 186.989296)"><g><path d="M 17.046875 -15.546875 C 19.539062 -16.277344 22.226562 -18.542969 22.226562 -21.535156 C 22.226562 -25.492188 17.542969 -26.875 11.324219 -26.875 L 0.574219 -26.875 L 0.574219 -26.679688 C 2.148438 -26.488281 3.492188 -26.066406 3.492188 -24.683594 L 3.492188 -2.957031 C 3.492188 -1.574219 2.148438 -0.769531 0.574219 -0.191406 L 0.574219 0 L 12.859375 0 C 20.078125 0 24.761719 -3.839844 24.761719 -8.867188 C 24.761719 -12.859375 21.84375 -15.011719 17.046875 -15.546875 Z M 11.554688 -26.257812 C 16.546875 -26.257812 18.425781 -23.496094 18.425781 -19.847656 C 18.425781 -16.316406 16.660156 -15.664062 14.589844 -15.664062 L 7.410156 -15.664062 L 7.410156 -26.257812 Z M 13.742188 -0.691406 C 11.902344 -0.691406 9.597656 -0.960938 7.410156 -1.535156 L 7.410156 -15.011719 L 12.746094 -15.011719 C 19.964844 -15.011719 20.882812 -11.132812 20.882812 -7.523438 C 20.882812 -2.035156 18.734375 -0.691406 13.742188 -0.691406 Z M 13.742188 -0.691406 "/></g></g></g><g fill="#000000" fill-opacity="1"><g transform="translate(91.013893, 186.989296)"><g><path d="M 23.648438 -7.484375 C 20.652344 -3.03125 18.886719 -0.613281 14.625 -0.613281 L 7.410156 -0.613281 L 7.410156 -13.128906 L 12.785156 -13.128906 C 16.851562 -13.128906 18.003906 -12.09375 18.925781 -9.253906 L 18.925781 -17.621094 C 18.003906 -14.78125 16.851562 -13.742188 12.785156 -13.742188 L 7.410156 -13.742188 L 7.410156 -26.257812 L 13.859375 -26.257812 C 18.121094 -26.257812 19.695312 -24.339844 22.265625 -20.691406 L 22.417969 -20.769531 L 21.152344 -26.875 L 0.574219 -26.875 L 0.574219 -26.679688 C 2.148438 -26.488281 3.492188 -26.066406 3.492188 -24.683594 L 3.492188 -2.957031 C 3.492188 -1.574219 2.148438 -0.769531 0.574219 -0.191406 L 0.574219 0 L 20.386719 0 L 21.691406 0.84375 L 21.921875 0 L 23.800781 -7.410156 Z M 23.648438 -7.484375 "/></g></g></g><g fill="#000000" fill-opacity="1"><g transform="translate(116.887636, 186.989296)"><g><path d="M 26.296875 -4.835938 L 18.195312 -25.300781 C 17.390625 -27.296875 17.351562 -27.601562 17.351562 -27.910156 L 13.78125 -25.566406 L 13.167969 -25.144531 L 13.246094 -24.300781 L 4.722656 -4.644531 C 3.300781 -1.34375 2.378906 -0.613281 0.769531 -0.152344 L 0.769531 0 L 7.832031 0 L 7.832031 -0.152344 C 5.683594 -0.613281 4.144531 -1.304688 5.566406 -4.605469 L 6.410156 -6.527344 L 21.421875 -6.527344 L 22.191406 -4.605469 C 23.535156 -1.226562 21.996094 -0.382812 19.308594 -0.152344 L 19.308594 0 L 30.097656 0 L 30.097656 -0.152344 C 28.371094 -0.382812 27.679688 -1.304688 26.296875 -4.835938 Z M 6.679688 -7.21875 L 14.203125 -24.570312 L 21.152344 -7.21875 Z M 6.679688 -7.21875 "/></g></g></g><g fill="#000000" fill-opacity="1"><g transform="translate(149.248952, 186.989296)"><g><path d="M 13.898438 0.539062 C 19.386719 0.539062 23.957031 -2.957031 23.957031 -10.25 L 23.957031 -20.808594 C 23.957031 -26.027344 25.300781 -26.449219 26.875 -26.644531 L 26.875 -26.835938 L 19.847656 -26.835938 L 19.847656 -26.644531 C 21.804688 -26.449219 23.148438 -25.261719 23.148438 -20.039062 L 23.148438 -9.597656 C 23.148438 -3.03125 18.273438 -0.652344 15.085938 -0.652344 C 12.132812 -0.652344 7.410156 -2.6875 7.410156 -9.519531 L 7.410156 -24.683594 C 7.410156 -26.066406 8.753906 -26.488281 10.328125 -26.679688 L 10.328125 -26.875 L 0.574219 -26.875 L 0.574219 -26.679688 C 2.148438 -26.488281 3.492188 -26.066406 3.492188 -24.683594 L 3.492188 -10.171875 C 3.492188 -1.34375 9.980469 0.539062 13.898438 0.539062 Z M 13.898438 0.539062 "/></g></g></g><g fill="#000000" fill-opacity="1"><g transform="translate(178.193733, 186.989296)"><g><path d="M 26.105469 -26.875 L 1.652344 -26.875 L 0.382812 -18.964844 L 0.539062 -18.964844 C 2.765625 -24.1875 4.375 -26.296875 10.210938 -26.296875 L 11.09375 -26.296875 L 11.09375 -2.570312 C 11.09375 -0.804688 9.75 -0.382812 7.410156 -0.191406 L 7.410156 0 L 18.695312 0 L 18.695312 -0.191406 C 16.355469 -0.382812 15.011719 -0.804688 15.011719 -2.570312 L 15.011719 -26.296875 L 17.8125 -26.296875 C 21.765625 -26.296875 23.992188 -24.1875 23.496094 -18.964844 L 23.648438 -18.964844 Z M 26.105469 -26.875 "/></g></g></g><g fill="#000000" fill-opacity="1"><g transform="translate(206.178813, 186.989296)"><g><path d="M 20.5 -26.875 L 20.5 -26.71875 C 22.996094 -26.335938 24.417969 -25.722656 22.6875 -22.996094 L 15.894531 -12.324219 L 9.136719 -23.378906 L 7.0625 -26.875 L 0.574219 -26.875 L 0.574219 -26.71875 C 1.84375 -26.488281 3.261719 -25.605469 4.644531 -23.378906 L 12.4375 -10.824219 L 12.4375 -2.1875 C 12.4375 -0.804688 11.09375 -0.382812 9.136719 -0.191406 L 9.136719 0 L 19.65625 0 L 19.65625 -0.191406 C 17.699219 -0.382812 16.355469 -0.804688 16.355469 -2.1875 L 16.355469 -11.59375 L 23.648438 -22.957031 C 25.375 -25.644531 26.875 -26.257812 28.984375 -26.71875 L 28.984375 -26.875 Z M 20.5 -26.875 "/></g></g></g><g fill="#000000" fill-opacity="1"><g transform="translate(237.234934, 186.989296)"><g><path d="M 24.1875 -26.71875 L 24.1875 -26.875 L 3.417969 -26.875 L 2.226562 -19.15625 L 2.378906 -19.15625 C 4.375 -25.144531 6.640625 -26.257812 12.554688 -26.257812 L 18.234375 -26.257812 L 5.566406 -5.835938 C 3.261719 -2.148438 1.957031 -0.5 0.769531 0 L 22.996094 0 L 24.1875 -7.640625 L 24.03125 -7.640625 C 22.035156 -1.726562 19.769531 -0.613281 13.476562 -0.613281 L 6.871094 -0.613281 L 20.15625 -22.113281 C 22.265625 -25.492188 23.035156 -26.488281 24.1875 -26.71875 Z M 24.1875 -26.71875 "/></g></g></g><g fill="#000000" fill-opacity="1"><g transform="translate(263.684506, 186.989296)"><g><path d="M 23.648438 -7.484375 C 20.652344 -3.03125 18.886719 -0.613281 14.625 -0.613281 L 7.410156 -0.613281 L 7.410156 -13.128906 L 12.785156 -13.128906 C 16.851562 -13.128906 18.003906 -12.09375 18.925781 -9.253906 L 18.925781 -17.621094 C 18.003906 -14.78125 16.851562 -13.742188 12.785156 -13.742188 L 7.410156 -13.742188 L 7.410156 -26.257812 L 13.859375 -26.257812 C 18.121094 -26.257812 19.695312 -24.339844 22.265625 -20.691406 L 22.417969 -20.769531 L 21.152344 -26.875 L 0.574219 -26.875 L 0.574219 -26.679688 C 2.148438 -26.488281 3.492188 -26.066406 3.492188 -24.683594 L 3.492188 -2.957031 C 3.492188 -1.574219 2.148438 -0.769531 0.574219 -0.191406 L 0.574219 0 L 20.386719 0 L 21.691406 0.84375 L 21.921875 0 L 23.800781 -7.410156 Z M 23.648438 -7.484375 "/></g></g></g><g fill="#000000" fill-opacity="1"><g transform="translate(289.558257, 186.989296)"><g><path d="M 21 -26.875 L 21 -26.679688 C 22.574219 -26.488281 23.917969 -25.300781 23.917969 -20.078125 L 23.917969 -6.140625 L 8.253906 -24.800781 C 7.449219 -25.722656 7.101562 -26.414062 6.832031 -26.875 L 0.382812 -26.875 C 1.613281 -26.257812 2.570312 -25.375 3.878906 -23.839844 L 3.878906 -6.027344 C 3.878906 -0.804688 2.535156 -0.382812 0.960938 -0.191406 L 0.960938 0 L 7.5625 0 L 7.5625 -0.191406 C 5.988281 -0.382812 4.644531 -1.574219 4.644531 -6.796875 L 4.644531 -22.917969 L 24.839844 1.074219 L 24.914062 1 C 24.839844 -0.382812 24.722656 -2.378906 24.722656 -6.371094 L 24.722656 -20.847656 C 24.722656 -26.066406 26.066406 -26.488281 27.640625 -26.679688 L 27.640625 -26.875 Z M 21 -26.875 "/></g></g></g><g fill="#4a2d1d" fill-opacity="1"><g transform="translate(151.742116, 215.521524)"><g><path d="M 10.347656 -1.667969 L 10.242188 -1.742188 C 9.597656 -0.945312 8.289062 -0.480469 7.164062 -0.480469 C 4.503906 -0.480469 2.359375 -3.003906 2.359375 -6.128906 C 2.359375 -8.9375 4.011719 -10.410156 6.023438 -10.410156 C 8.320312 -10.410156 9.433594 -8.5 8.621094 -6.519531 L 8.667969 -6.503906 L 10.574219 -9.148438 C 9.882812 -9.988281 8.667969 -10.722656 6.757812 -10.722656 C 3.664062 -10.722656 0.675781 -8.726562 0.675781 -5.257812 C 0.675781 -2.027344 3.257812 0.210938 6.429688 0.210938 C 8.378906 0.210938 9.703125 -0.644531 10.347656 -1.667969 Z M 10.347656 -1.667969 "/></g></g></g><g fill="#4a2d1d" fill-opacity="1"><g transform="translate(168.921963, 215.521524)"><g><path d="M 7.539062 -1.5 C 7.074219 -0.855469 5.84375 -0.554688 5.046875 -0.554688 C 3.246094 -0.554688 2.074219 -2.117188 2.058594 -4.175781 L 6.351562 -4.175781 C 8.230469 -4.175781 7.886719 -7.375 4.761719 -7.375 C 2.582031 -7.375 0.601562 -5.886719 0.601562 -3.46875 C 0.601562 -1.203125 2.3125 0.105469 4.402344 0.105469 C 5.949219 0.105469 7.164062 -0.601562 7.613281 -1.441406 Z M 4.21875 -7.105469 C 6.171875 -7.105469 6.667969 -4.476562 5.753906 -4.460938 L 2.058594 -4.414062 C 2.132812 -6.113281 3.003906 -7.105469 4.21875 -7.105469 Z M 4.21875 -7.105469 "/></g></g></g><g fill="#4a2d1d" fill-opacity="1"><g transform="translate(183.144114, 215.521524)"><g><path d="M 6.429688 0 L 8.484375 0 C 8.035156 -0.300781 7.898438 -0.585938 7.898438 -1.398438 L 7.898438 -4.640625 C 7.898438 -6.910156 6.730469 -7.375 5.753906 -7.375 C 4.414062 -7.375 3.257812 -6.503906 2.449219 -5.960938 L 2.449219 -6.25 L 2.523438 -7.359375 L 0.148438 -7.132812 L 0.148438 -7.074219 C 0.464844 -7.042969 0.855469 -6.9375 1.066406 -6.804688 L 1.066406 -1.035156 L 0.976562 0 L 3.035156 0 C 2.582031 -0.300781 2.449219 -0.585938 2.449219 -1.398438 L 2.449219 -5.632812 C 3.214844 -6.144531 3.933594 -6.730469 4.894531 -6.730469 C 5.675781 -6.730469 6.519531 -6.324219 6.519531 -4.609375 L 6.519531 -1.035156 Z M 6.429688 0 "/></g></g></g><g fill="#4a2d1d" fill-opacity="1"><g transform="translate(198.237058, 215.521524)"><g><path d="M 2.253906 0.242188 L 2.566406 0.242188 L 4.386719 -0.269531 L 4.386719 -0.332031 L 2.566406 -0.269531 L 2.566406 -6.925781 L 4.3125 -6.925781 L 4.386719 -7.285156 L 2.566406 -7.285156 L 2.566406 -9.222656 L 2.6875 -9.835938 L -0.0742188 -8.5625 L -0.0742188 -8.472656 C 0.902344 -8.757812 1.1875 -8.816406 1.1875 -8.183594 L 1.1875 -1.035156 L 1.140625 -0.136719 Z M 2.253906 0.242188 "/></g></g></g><g fill="#4a2d1d" fill-opacity="1"><g transform="translate(209.156206, 215.521524)"><g><path d="M 7.539062 -1.5 C 7.074219 -0.855469 5.84375 -0.554688 5.046875 -0.554688 C 3.246094 -0.554688 2.074219 -2.117188 2.058594 -4.175781 L 6.351562 -4.175781 C 8.230469 -4.175781 7.886719 -7.375 4.761719 -7.375 C 2.582031 -7.375 0.601562 -5.886719 0.601562 -3.46875 C 0.601562 -1.203125 2.3125 0.105469 4.402344 0.105469 C 5.949219 0.105469 7.164062 -0.601562 7.613281 -1.441406 Z M 4.21875 -7.105469 C 6.171875 -7.105469 6.667969 -4.476562 5.753906 -4.460938 L 2.058594 -4.414062 C 2.132812 -6.113281 3.003906 -7.105469 4.21875 -7.105469 Z M 4.21875 -7.105469 "/></g></g></g><g fill="#4a2d1d" fill-opacity="1"><g transform="translate(223.378357, 215.521524)"><g><path d="M 4.835938 -7.359375 C 3.828125 -7.359375 2.988281 -6.730469 2.644531 -5.765625 L 2.449219 -5.765625 L 2.449219 -6.25 L 2.523438 -7.359375 L 0.148438 -7.132812 L 0.148438 -7.074219 C 0.464844 -7.042969 0.855469 -6.9375 1.066406 -6.804688 L 1.066406 -1.035156 L 0.992188 0 L 3.035156 0 C 2.582031 -0.300781 2.449219 -0.585938 2.449219 -1.398438 L 2.449219 -4.503906 C 2.597656 -5.558594 3.078125 -6.519531 3.84375 -6.519531 C 4.324219 -6.519531 4.6875 -6.082031 4.28125 -5.078125 L 4.339844 -5.078125 L 5.632812 -7.179688 C 5.347656 -7.3125 5.105469 -7.359375 4.835938 -7.359375 Z M 4.835938 -7.359375 "/></g></g></g></svg>